<?xml version="1.0" standalone="no"?>
<!DOCTYPE svg PUBLIC "-//W3C//DTD SVG 20010904//EN"
 "http://www.w3.org/TR/2001/REC-SVG-20010904/DTD/svg10.dtd">
<svg version="1.0" xmlns="http://www.w3.org/2000/svg"
 width="202.000000pt" height="248.000000pt" viewBox="0 0 202.000000 248.000000"
 preserveAspectRatio="xMidYMid meet">

<g transform="translate(0.000000,248.000000) scale(0.100000,-0.100000)"
fill="#000000" stroke="none">
<path d="M110 2275 l0 -35 84 0 c74 0 86 -3 110 -25 42 -39 31 -120 -21 -144
-13 -6 -58 -11 -99 -11 l-75 0 3 -37 3 -38 88 -5 c78 -4 91 -8 108 -29 21 -25
25 -71 9 -102 -18 -33 -64 -49 -140 -49 l-70 0 0 -35 0 -35 81 0 c76 0 82 -2
110 -29 38 -38 40 -91 4 -126 -22 -23 -32 -25 -110 -25 l-85 0 0 -40 0 -40 75
0 c112 0 145 -22 145 -93 -1 -64 -40 -87 -144 -87 l-76 0 0 -35 0 -35 70 0
c76 0 122 -16 140 -49 17 -33 11 -78 -14 -108 -23 -26 -31 -28 -110 -32 l-86
-3 0 -34 0 -34 81 0 c76 0 82 -2 110 -29 33 -34 39 -82 14 -118 -20 -28 -82
-45 -149 -42 l-51 3 -3 -37 -3 -37 76 0 c103 0 144 -24 145 -82 0 -39 -19 -74
-47 -87 -13 -6 -57 -11 -98 -11 l-75 0 0 -40 0 -40 85 0 c78 0 88 -2 110 -25
33 -32 33 -84 1 -122 -23 -26 -31 -28 -110 -32 l-86 -3 0 -114 0 -114 905 0
905 0 0 98 c-1 124 -6 132 -89 132 -73 0 -114 18 -130 58 -15 36 -6 74 23 101
18 17 37 21 107 24 l84 2 3 38 3 37 -84 0 c-69 0 -89 4 -110 20 -34 27 -43 70
-23 109 23 43 44 51 135 51 l81 0 0 35 c0 29 -4 35 -22 36 -13 0 -49 1 -80 2
-92 3 -146 59 -119 124 19 46 58 63 145 63 l76 0 0 35 0 35 -75 0 c-86 0 -115
11 -138 50 -24 40 -21 65 12 102 28 32 33 33 115 37 l86 3 0 34 0 34 -84 0
c-75 0 -88 3 -113 24 -22 19 -28 32 -28 66 0 34 6 47 28 66 25 21 38 24 113
24 l84 0 0 40 0 40 -83 0 c-91 0 -121 13 -138 57 -14 37 6 90 41 108 18 9 57
15 105 15 l75 0 0 35 0 35 -81 0 c-79 0 -82 1 -116 35 -31 31 -35 40 -29 68
12 60 40 76 136 80 l85 3 3 37 3 37 -85 0 c-75 0 -88 3 -113 24 -22 19 -28 32
-28 66 0 34 6 47 28 66 25 21 38 24 113 24 l84 0 0 35 0 35 -905 0 -905 0 0
-35z m519 -21 c64 -81 -30 -206 -99 -132 -28 30 -28 110 0 138 29 29 74 26 99
-6z m871 6 c15 -15 20 -33 20 -70 0 -37 -5 -55 -20 -70 -46 -46 -120 -4 -120
68 0 78 72 120 120 72z m-1120 -80 c-13 -8 -12 -11 5 -24 16 -12 17 -16 6 -30
-15 -18 -37 -21 -46 -5 -4 6 0 9 10 7 10 -2 20 3 22 10 3 7 -4 12 -15 12 -15
0 -19 5 -15 20 3 12 14 20 27 20 17 0 18 -2 6 -10z m47 -10 c7 -26 19 -25 26
2 4 12 9 19 13 16 8 -9 -15 -78 -27 -78 -5 0 -9 2 -9 4 0 2 -7 20 -15 40 -10
24 -12 36 -4 36 6 0 13 -9 16 -20z m1198 10 c-18 -7 -19 -8 -2 -15 21 -9 22
-44 1 -52 -8 -3 -21 0 -27 7 -9 9 -8 11 7 8 10 -1 21 3 23 10 3 7 -4 12 -16
12 -23 0 -24 1 -15 24 3 9 16 16 28 15 20 0 20 -1 1 -9z m-1201 -246 c26 -10
18 -25 -9 -18 -22 5 -25 3 -25 -20 0 -20 5 -26 23 -26 17 0 19 2 7 10 -18 11
-6 25 15 16 20 -7 16 -25 -8 -40 -39 -25 -78 44 -41 71 21 15 18 15 38 7z
m1214 -12 c2 -8 -3 -10 -15 -6 -17 5 -17 5 0 -6 19 -12 23 -45 7 -55 -16 -10
-40 14 -40 39 0 38 37 59 48 28z m-1008 -62 c16 -16 20 -33 20 -90 0 -62 -3
-74 -25 -95 -30 -30 -54 -31 -89 -4 -24 19 -26 26 -26 95 0 85 18 114 70 114
17 0 39 -9 50 -20z m872 3 c14 -13 18 -31 18 -91 0 -64 -3 -79 -22 -99 -28
-30 -63 -29 -93 2 -21 20 -25 34 -25 85 0 60 11 97 34 112 20 13 69 8 88 -9z
m-426 -104 c11 -64 57 -86 104 -49 34 27 52 25 85 -10 l29 -31 -24 -45 c-23
-41 -24 -46 -10 -71 11 -19 27 -30 55 -35 45 -10 55 -21 55 -63 0 -42 -9 -52
-53 -60 -30 -6 -42 -15 -54 -40 -15 -31 -15 -35 6 -63 28 -40 27 -53 -9 -87
l-31 -29 -36 19 c-20 11 -47 20 -61 20 -20 0 -28 11 -54 73 l-31 73 26 27 c34
35 36 88 6 126 -16 20 -29 26 -60 26 -82 0 -118 -85 -62 -150 l26 -32 -30 -71
c-25 -62 -33 -72 -54 -72 -14 0 -42 -9 -62 -20 l-37 -19 -34 33 -35 34 25 38
c17 27 22 47 18 64 -7 30 -17 37 -69 50 -40 11 -40 11 -40 60 l0 50 45 11 c34
8 48 17 59 39 12 26 12 32 -10 72 l-24 43 36 35 35 35 34 -25 c38 -28 49 -30
83 -14 18 8 27 22 31 52 4 23 11 44 16 47 5 3 29 4 54 2 45 -4 46 -5 52 -43z
m-689 -122 c3 -31 0 -37 -16 -37 -11 0 -23 5 -27 12 -5 8 -2 9 9 5 18 -7 33 8
18 18 -6 3 -8 12 -4 20 4 11 1 13 -13 8 -12 -4 -15 -3 -10 6 16 25 41 7 43
-32z m98 3 c0 -29 -4 -36 -22 -38 -13 -2 -23 1 -23 7 0 6 6 8 13 5 10 -3 14 4
14 25 0 22 -4 28 -15 23 -10 -4 -13 -1 -8 7 16 25 41 7 41 -29z m1155 33 c0
-16 -25 -73 -32 -73 -10 0 -10 3 2 34 8 21 6 26 -6 26 -8 0 -12 5 -9 10 7 11
45 14 45 3z m-1208 -281 c7 -51 -3 -62 -36 -37 -18 13 -18 16 -2 40 21 33 33
32 38 -3z m1210 -2 c6 -37 -4 -53 -28 -48 -15 2 -19 11 -17 38 2 44 0 40 22
40 13 0 20 -9 23 -30z m-1214 -269 c-2 -28 -7 -36 -22 -36 -11 0 -21 5 -23 12
-3 7 3 9 16 6 12 -3 21 -1 21 6 0 6 -4 11 -10 11 -5 0 -7 7 -4 15 5 11 2 13
-10 9 -9 -3 -16 -2 -16 4 0 13 21 21 38 14 8 -3 12 -18 10 -41z m1213 30 c0
-3 2 -14 4 -23 5 -27 -19 -53 -41 -43 -17 7 -17 8 6 15 17 6 19 8 7 9 -23 1
-33 27 -17 46 11 13 39 11 41 -4z m-221 -296 l0 -75 -405 0 -405 0 0 75 0 75
405 0 405 0 0 -75z m-993 39 c3 -9 1 -25 -6 -35 -7 -12 -7 -19 -1 -19 5 0 10
-4 10 -10 0 -12 -37 -13 -44 -1 -3 4 3 16 14 26 23 21 26 40 5 32 -8 -4 -17
-2 -20 3 -3 4 1 11 7 13 22 9 28 7 35 -9z m1173 -24 c0 -22 -4 -40 -10 -40 -5
0 -10 11 -10 25 0 14 -5 25 -11 25 -8 0 -8 5 1 15 21 25 30 17 30 -25z m68 -4
c3 -34 1 -37 -20 -34 -27 4 -37 41 -17 64 19 23 34 11 37 -30z m-248 -256 l0
-130 -405 0 -405 0 0 123 c0 68 3 127 7 130 3 4 186 7 405 7 l398 0 0 -130z
m-993 0 c0 -22 -4 -40 -9 -40 -4 0 -8 11 -8 25 0 14 -5 25 -11 25 -8 0 -8 5 1
15 20 24 27 18 27 -25z m1183 21 c0 -11 -5 -23 -10 -26 -8 -5 -7 -11 1 -21 9
-11 7 -14 -15 -14 -31 0 -33 11 -6 35 22 20 18 37 -7 28 -11 -4 -14 -3 -9 5
12 20 46 14 46 -7z m65 -1 c9 -29 -3 -60 -25 -60 -20 0 -34 38 -24 64 9 23 41
20 49 -4z m-1247 -277 c-4 -46 -34 -59 -44 -19 -8 35 1 56 26 56 18 0 21 -5
18 -37z m1192 26 c0 -6 -5 -19 -10 -30 -7 -13 -7 -19 0 -19 5 0 10 -4 10 -10
0 -5 -11 -10 -25 -10 -29 0 -31 8 -10 36 19 25 19 38 0 30 -8 -3 -15 -1 -15 4
0 6 11 10 25 10 14 0 25 -5 25 -11z m50 -31 c0 -42 -5 -49 -12 -13 -1 11 -7
23 -12 26 -10 8 1 29 15 29 5 0 9 -19 9 -42z"/>
<path d="M1610 1880 c0 -5 5 -10 10 -10 6 0 10 5 10 10 0 6 -4 10 -10 10 -5 0
-10 -4 -10 -10z"/>
<path d="M1610 1400 c0 -5 5 -10 10 -10 6 0 10 5 10 10 0 6 -4 10 -10 10 -5 0
-10 -4 -10 -10z"/>
<path d="M1610 1366 c0 -9 5 -16 10 -16 6 0 10 4 10 9 0 6 -4 13 -10 16 -5 3
-10 -1 -10 -9z"/>
<path d="M1610 1134 c0 -8 5 -12 10 -9 6 3 10 10 10 16 0 5 -4 9 -10 9 -5 0
-10 -7 -10 -16z"/>
<path d="M717 903 c-4 -3 -7 -26 -7 -50 0 -41 1 -43 30 -43 17 0 30 5 30 10 0
6 -9 10 -20 10 -27 0 -25 18 3 23 l22 4 -22 8 c-28 9 -30 25 -3 25 11 0 20 5
20 10 0 11 -43 14 -53 3z"/>
<path d="M789 894 c-12 -14 -10 -19 15 -39 29 -23 23 -41 -10 -28 -12 4 -15 3
-10 -5 11 -18 56 -14 63 5 4 11 -1 22 -15 31 -28 18 -28 32 -1 32 11 0 17 5
14 10 -9 15 -41 12 -56 -6z"/>
<path d="M870 860 c0 -27 5 -50 10 -50 6 0 10 6 10 14 0 8 9 17 19 21 44 14
27 65 -21 65 -15 0 -18 -8 -18 -50z m40 15 c0 -8 -4 -15 -10 -15 -5 0 -10 7
-10 15 0 8 5 15 10 15 6 0 10 -7 10 -15z"/>
<path d="M955 900 c-3 -5 3 -10 14 -10 12 0 21 -4 21 -10 0 -5 -7 -10 -15 -10
-8 0 -15 -4 -15 -10 0 -5 7 -10 16 -10 9 0 14 -6 11 -12 -2 -7 -12 -12 -21
-12 -9 1 -16 -3 -16 -8 0 -5 12 -8 28 -6 24 3 27 7 28 43 1 39 -8 55 -33 55
-6 0 -15 -4 -18 -10z"/>
<path d="M1040 900 c-12 -8 -11 -10 8 -10 27 0 29 -21 2 -38 -31 -19 -25 -42
10 -42 17 0 30 5 30 10 0 6 -7 10 -17 10 -15 0 -15 1 0 18 21 23 22 48 1 56
-19 7 -16 8 -34 -4z"/>
<path d="M1180 890 c-23 -23 -24 -33 -10 -61 11 -20 70 -28 70 -9 0 6 -11 10
-24 10 -13 0 -26 6 -29 13 -7 20 12 47 34 47 11 0 17 5 14 10 -10 16 -33 12
-55 -10z"/>
<path d="M1260 901 c0 -6 7 -11 15 -11 18 0 20 -16 3 -23 -9 -3 -7 -10 7 -21
16 -12 17 -16 5 -17 -8 -1 -18 -1 -22 0 -5 0 -8 -3 -8 -9 0 -5 11 -10 25 -10
23 0 31 11 25 35 -1 6 -3 21 -4 35 -1 18 -7 26 -23 28 -13 2 -23 -1 -23 -7z"/>
<path d="M1118 843 c6 -2 18 -2 25 0 6 3 1 5 -13 5 -14 0 -19 -2 -12 -5z"/>
<path d="M1640 865 c0 -14 5 -25 10 -25 6 0 10 11 10 25 0 14 -4 25 -10 25 -5
0 -10 -11 -10 -25z"/>
<path d="M654 663 c-15 -16 -15 -18 10 -39 31 -28 32 -34 6 -34 -11 0 -20 -5
-20 -11 0 -6 12 -9 28 -7 35 4 43 41 13 58 -27 14 -27 30 0 30 11 0 17 5 14
10 -9 15 -32 12 -51 -7z"/>
<path d="M1097 673 c-11 -10 -8 -103 3 -103 6 0 10 17 11 38 l1 37 15 -37 c9
-21 19 -38 23 -38 4 0 15 17 23 38 l16 37 0 -37 c1 -21 6 -38 12 -38 14 0 7
102 -7 107 -6 2 -18 -13 -27 -34 l-15 -38 -15 38 c-15 36 -26 44 -40 30z"/>
<path d="M1230 670 c0 -5 5 -10 10 -10 6 0 10 5 10 10 0 6 -4 10 -10 10 -5 0
-10 -4 -10 -10z"/>
<path d="M1360 670 c0 -5 7 -10 16 -10 8 0 12 5 9 10 -3 6 -10 10 -16 10 -5 0
-9 -4 -9 -10z"/>
<path d="M732 613 c3 -35 6 -38 36 -40 31 -1 32 0 32 38 0 21 -4 39 -10 39 -5
0 -10 -13 -10 -30 0 -20 -5 -30 -15 -30 -10 0 -15 10 -15 30 0 17 -5 30 -11
30 -6 0 -9 -16 -7 -37z"/>
<path d="M820 594 c0 -30 5 -54 10 -54 6 0 10 7 10 15 0 8 9 15 20 15 10 0 24
9 30 20 16 29 -2 54 -39 56 -31 2 -31 2 -31 -52z m50 16 c0 -11 -7 -20 -15
-20 -15 0 -21 21 -8 33 12 13 23 7 23 -13z"/>
<path d="M920 636 c-20 -26 -8 -61 23 -64 15 -2 27 1 27 7 0 6 -10 12 -22 12
-21 1 -21 2 -3 6 31 8 40 20 25 38 -16 19 -34 19 -50 1z m37 -12 c-3 -3 -12
-4 -19 -1 -8 3 -5 6 6 6 11 1 17 -2 13 -5z"/>
<path d="M995 641 c-10 -9 -5 -71 5 -71 6 0 10 11 10 25 0 14 7 28 15 31 8 4
15 9 15 13 0 7 -38 9 -45 2z"/>
<path d="M1237 643 c-11 -10 -8 -73 3 -73 6 0 10 18 10 40 0 41 -2 45 -13 33z"/>
<path d="M1273 634 c-7 -20 1 -59 12 -57 6 1 11 14 13 28 5 35 22 31 22 -5 0
-16 5 -30 11 -30 6 0 9 16 7 38 -3 33 -6 37 -32 37 -15 1 -30 -5 -33 -11z"/>
<path d="M1368 644 c-11 -10 -10 -74 1 -74 5 0 11 6 13 13 6 18 -6 70 -14 61z"/>
<path d="M1645 628 c-4 -10 -4 -26 0 -35 8 -17 8 -17 12 0 3 9 3 25 0 35 -4
16 -4 16 -12 0z"/>
<path d="M400 356 c0 -14 5 -26 10 -26 6 0 10 9 10 19 0 11 -4 23 -10 26 -6 4
-10 -5 -10 -19z"/>
<path d="M200 1111 c0 -6 4 -13 10 -16 6 -3 7 1 4 9 -7 18 -14 21 -14 7z"/>
</g>
</svg>
